<svg width="930" height="169" viewBox="0 0 930 169" fill="none" xmlns="http://www.w3.org/2000/svg">
<g filter="url(#filter0_d_0_1)">
<path d="M117.663 2.63936L181.574 44.4905C183.761 45.9241 185.554 47.866 186.795 50.1438C188.035 52.4216 188.684 54.9649 188.684 57.5481V148.327L108.795 111.917L28.9065 148.327C28.9065 74.1633 28.9065 75.5367 28.9065 148.327C28.9065 74.85 28.9065 74.1633 28.9065 148.327C28.9065 74.85 28.9065 74.85 28.9065 148.327C28.9065 149.758 28.9065 74.85 28.9065 148.327L28.9065 57.5481C28.9064 54.9649 29.5553 52.4216 30.7956 50.1438C32.0359 47.866 33.8292 45.9241 36.0166 44.4905L99.9274 2.63936C102.553 0.918399 105.639 -4.05312e-06 108.795 -4.05312e-06C111.951 -4.05312e-06 115.037 0.918399 117.663 2.63936Z" fill="#699BF7"/>
</g>
<g filter="url(#filter1_d_0_1)">
<path d="M92.7563 19.2193L156.667 61.0704C158.855 62.5041 160.648 64.446 161.888 66.7238C163.128 69.0015 163.777 71.5448 163.777 74.128V137.003L108.795 112.133L4 159.691C4.00001 85.5278 4.00001 86.9012 4 159.691C4 86.2145 4.00001 85.5278 4 159.691C4.00001 86.2145 4.00001 86.2145 4 159.691L4 74.128C3.99994 71.5448 4.64883 69.0015 5.88912 66.7238C7.12941 64.446 8.92276 62.5041 11.1101 61.0704L75.021 19.2193C77.6466 17.4983 80.7323 16.5799 83.8886 16.5799C87.045 16.5799 90.1306 17.4983 92.7563 19.2193Z" fill="#69D5F7" fill-opacity="0.5" shape-rendering="crispEdges"/>
</g>
<g filter="url(#filter2_d_0_1)">
<path d="M143.979 19.676L207.89 61.5271C210.077 62.9607 211.871 64.9026 213.111 67.1804C214.351 69.4582 215 72.0015 215 74.5847V161L108.795 112.153L55.2227 136.566C55.2227 62.4031 55.2227 63.7765 55.2227 136.566C55.2227 63.0898 55.2227 62.4031 55.2227 136.566C55.2227 63.0898 55.2227 63.0898 55.2227 136.566C55.2227 137.998 55.2227 63.0898 55.2227 136.566L55.2227 74.5847C55.2226 72.0015 55.8715 69.4582 57.1118 67.1804C58.3521 64.9026 60.1455 62.9607 62.3328 61.5271L126.244 19.676C128.869 17.955 131.955 17.0366 135.111 17.0366C138.268 17.0366 141.353 17.955 143.979 19.676Z" fill="#69D5F7" fill-opacity="0.5" shape-rendering="crispEdges"/>
</g>
<path d="M28.9065 147.911C28.9065 147.911 28.9065 55.8482 28.9065 56.7209" stroke="#012970" stroke-width="2"/>
<path d="M35.0156 45.3767L75.4299 18.7615" stroke="#012970" stroke-width="2"/>
<path d="M92.8174 19.1978L108.795 29.6694" stroke="#012970" stroke-width="2"/>
<path d="M111.145 29.6694L127.123 19.1978" stroke="#012970" stroke-width="2"/>
<path d="M143.1 19.1978L181.635 44.5041M188.684 56.7209V148.783" stroke="#012970" stroke-width="2"/>
<path d="M144.04 19.6342C136.587 16.1137 132.631 15.7776 126.183 19.6342" stroke="#012970" stroke-width="2"/>
<path d="M28.9065 57.5935C28.9491 51.5331 30.2723 48.7107 35.4855 44.9404" stroke="#012970" stroke-width="2"/>
<path d="M74.49 19.1978C81.9777 15.1369 86.1997 15.6358 93.7572 19.6341" stroke="#012970" stroke-width="2"/>
<path d="M108.325 29.2331C109.629 30.5279 110.349 30.4809 111.615 29.2331" stroke="#012970" stroke-width="2"/>
<path d="M179.755 43.1951C186.752 48.104 188.27 51.5788 188.684 58.4661" stroke="#012970" stroke-width="2"/>
<path d="M270.125 144C267.792 144 266 143.333 264.75 142C263.5 140.667 262.875 138.833 262.875 136.5V61.375C262.875 58.9583 263.542 57.125 264.875 55.875C266.208 54.5417 268.042 53.875 270.375 53.875C272.458 53.875 274.083 54.2917 275.25 55.125C276.5 55.875 277.625 57.2083 278.625 59.125L309.5 116.25H305.5L336.375 59.125C337.375 57.2083 338.458 55.875 339.625 55.125C340.792 54.2917 342.417 53.875 344.5 53.875C346.833 53.875 348.625 54.5417 349.875 55.875C351.125 57.125 351.75 58.9583 351.75 61.375V136.5C351.75 138.833 351.125 140.667 349.875 142C348.708 143.333 346.917 144 344.5 144C342.167 144 340.375 143.333 339.125 142C337.875 140.667 337.25 138.833 337.25 136.5V78.625H340L313.75 126.5C312.917 127.917 312.042 128.958 311.125 129.625C310.208 130.292 308.958 130.625 307.375 130.625C305.792 130.625 304.5 130.292 303.5 129.625C302.5 128.875 301.625 127.833 300.875 126.5L274.375 78.5H277.375V136.5C277.375 138.833 276.75 140.667 275.5 142C274.333 143.333 272.542 144 270.125 144ZM399.771 144.25C392.854 144.25 386.896 142.958 381.896 140.375C376.896 137.792 373.021 134.125 370.271 129.375C367.604 124.625 366.271 119 366.271 112.5C366.271 106.167 367.562 100.625 370.146 95.875C372.812 91.125 376.437 87.4167 381.021 84.75C385.687 82 390.979 80.625 396.896 80.625C401.229 80.625 405.104 81.3333 408.521 82.75C412.021 84.1667 414.979 86.2083 417.396 88.875C419.896 91.5417 421.771 94.7917 423.021 98.625C424.354 102.375 425.021 106.625 425.021 111.375C425.021 112.875 424.479 114.042 423.396 114.875C422.396 115.625 420.937 116 419.021 116H378.896V107H414.021L412.021 108.875C412.021 105.042 411.437 101.833 410.271 99.25C409.187 96.6667 407.562 94.7083 405.396 93.375C403.312 91.9583 400.687 91.25 397.521 91.25C394.021 91.25 391.021 92.0833 388.521 93.75C386.104 95.3333 384.229 97.625 382.896 100.625C381.646 103.542 381.021 107.042 381.021 111.125V112C381.021 118.833 382.604 123.958 385.771 127.375C389.021 130.708 393.771 132.375 400.021 132.375C402.187 132.375 404.604 132.125 407.271 131.625C410.021 131.042 412.604 130.083 415.021 128.75C416.771 127.75 418.312 127.333 419.646 127.5C420.979 127.583 422.021 128.042 422.771 128.875C423.604 129.708 424.104 130.75 424.271 132C424.437 133.167 424.187 134.375 423.521 135.625C422.937 136.875 421.896 137.958 420.396 138.875C417.479 140.708 414.104 142.083 410.271 143C406.521 143.833 403.021 144.25 399.771 144.25ZM465.15 144.25C459.734 144.25 455.192 143.333 451.525 141.5C447.942 139.667 445.275 137 443.525 133.5C441.775 129.917 440.9 125.5 440.9 120.25V93.625H434.4C432.4 93.625 430.859 93.125 429.775 92.125C428.692 91.0417 428.15 89.5833 428.15 87.75C428.15 85.8333 428.692 84.375 429.775 83.375C430.859 82.375 432.4 81.875 434.4 81.875H440.9V70.5C440.9 67.9167 441.567 65.9583 442.9 64.625C444.317 63.2917 446.275 62.625 448.775 62.625C451.275 62.625 453.192 63.2917 454.525 64.625C455.859 65.9583 456.525 67.9167 456.525 70.5V81.875H469.775C471.775 81.875 473.317 82.375 474.4 83.375C475.484 84.375 476.025 85.8333 476.025 87.75C476.025 89.5833 475.484 91.0417 474.4 92.125C473.317 93.125 471.775 93.625 469.775 93.625H456.525V119.375C456.525 123.375 457.4 126.375 459.15 128.375C460.9 130.375 463.734 131.375 467.65 131.375C469.067 131.375 470.317 131.25 471.4 131C472.484 130.75 473.442 130.583 474.275 130.5C475.275 130.417 476.109 130.75 476.775 131.5C477.442 132.167 477.775 133.583 477.775 135.75C477.775 137.417 477.484 138.917 476.9 140.25C476.4 141.5 475.442 142.375 474.025 142.875C472.942 143.208 471.525 143.5 469.775 143.75C468.025 144.083 466.484 144.25 465.15 144.25ZM505.249 144.25C500.832 144.25 496.874 143.417 493.374 141.75C489.957 140 487.249 137.667 485.249 134.75C483.332 131.833 482.374 128.542 482.374 124.875C482.374 120.375 483.541 116.833 485.874 114.25C488.207 111.583 491.999 109.667 497.249 108.5C502.499 107.333 509.541 106.75 518.374 106.75H524.624V115.75H518.499C513.332 115.75 509.207 116 506.124 116.5C503.041 117 500.832 117.875 499.499 119.125C498.249 120.292 497.624 121.958 497.624 124.125C497.624 126.875 498.582 129.125 500.499 130.875C502.416 132.625 505.082 133.5 508.499 133.5C511.249 133.5 513.666 132.875 515.749 131.625C517.916 130.292 519.624 128.5 520.874 126.25C522.124 124 522.749 121.417 522.749 118.5V104.125C522.749 99.9583 521.832 96.9583 519.999 95.125C518.166 93.2917 515.082 92.375 510.749 92.375C508.332 92.375 505.707 92.6667 502.874 93.25C500.124 93.8333 497.207 94.8333 494.124 96.25C492.541 97 491.124 97.2083 489.874 96.875C488.707 96.5417 487.791 95.875 487.124 94.875C486.457 93.7917 486.124 92.625 486.124 91.375C486.124 90.125 486.457 88.9167 487.124 87.75C487.791 86.5 488.916 85.5833 490.499 85C494.332 83.4167 497.999 82.2917 501.499 81.625C505.082 80.9583 508.332 80.625 511.249 80.625C517.249 80.625 522.166 81.5417 525.999 83.375C529.916 85.2083 532.832 88 534.749 91.75C536.666 95.4167 537.624 100.167 537.624 106V136C537.624 138.583 536.999 140.583 535.749 142C534.499 143.333 532.707 144 530.374 144C528.041 144 526.207 143.333 524.874 142C523.624 140.583 522.999 138.583 522.999 136V130H523.999C523.416 132.917 522.249 135.458 520.499 137.625C518.832 139.708 516.707 141.333 514.124 142.5C511.541 143.667 508.582 144.25 505.249 144.25ZM585.358 144.25C581.692 144.25 578.025 143.958 574.358 143.375C570.692 142.875 567.233 142.083 563.983 141C560.733 139.833 557.817 138.417 555.233 136.75C553.733 135.75 552.692 134.542 552.108 133.125C551.525 131.708 551.317 130.333 551.483 129C551.733 127.583 552.275 126.375 553.108 125.375C554.025 124.292 555.15 123.625 556.483 123.375C557.817 123.125 559.275 123.5 560.858 124.5C564.525 126.667 568.4 128.25 572.483 129.25C576.567 130.25 580.858 130.75 585.358 130.75C591.942 130.75 596.733 129.667 599.733 127.5C602.733 125.25 604.233 122.375 604.233 118.875C604.233 115.958 603.15 113.667 600.983 112C598.9 110.333 595.275 108.958 590.108 107.875L576.358 105C568.442 103.333 562.525 100.542 558.608 96.625C554.775 92.625 552.858 87.375 552.858 80.875C552.858 76.7917 553.692 73.0833 555.358 69.75C557.025 66.4167 559.358 63.5417 562.358 61.125C565.442 58.7083 569.067 56.875 573.233 55.625C577.483 54.2917 582.15 53.625 587.233 53.625C592.233 53.625 596.983 54.25 601.483 55.5C605.983 56.75 610.025 58.5833 613.608 61C614.942 61.9167 615.817 63.0417 616.233 64.375C616.733 65.7083 616.858 67.0417 616.608 68.375C616.358 69.625 615.775 70.7083 614.858 71.625C613.942 72.5417 612.775 73.0833 611.358 73.25C610.025 73.4167 608.483 73 606.733 72C603.65 70.25 600.525 69 597.358 68.25C594.192 67.5 590.775 67.125 587.108 67.125C583.275 67.125 579.983 67.6667 577.233 68.75C574.483 69.8333 572.358 71.375 570.858 73.375C569.442 75.2917 568.733 77.5833 568.733 80.25C568.733 83.25 569.733 85.6667 571.733 87.5C573.733 89.25 577.15 90.625 581.983 91.625L595.608 94.5C603.858 96.25 609.983 99 613.983 102.75C618.067 106.5 620.108 111.5 620.108 117.75C620.108 121.75 619.275 125.375 617.608 128.625C616.025 131.875 613.692 134.667 610.608 137C607.608 139.333 603.983 141.125 599.733 142.375C595.483 143.625 590.692 144.25 585.358 144.25ZM640.091 144C637.591 144 635.674 143.333 634.341 142C633.007 140.583 632.341 138.583 632.341 136V61.75C632.341 59.1667 633.007 57.2083 634.341 55.875C635.674 54.5417 637.591 53.875 640.091 53.875C642.591 53.875 644.507 54.5417 645.841 55.875C647.257 57.2083 647.966 59.1667 647.966 61.75V107.875H648.216L668.841 86.125C670.507 84.4583 671.966 83.1667 673.216 82.25C674.466 81.3333 676.174 80.875 678.341 80.875C680.507 80.875 682.132 81.4583 683.216 82.625C684.382 83.7083 684.966 85.0417 684.966 86.625C684.966 88.2083 684.216 89.7917 682.716 91.375L660.966 114.375V107.875L684.841 133.625C686.341 135.208 687.007 136.833 686.841 138.5C686.757 140.083 686.091 141.417 684.841 142.5C683.591 143.5 682.007 144 680.091 144C677.757 144 675.882 143.542 674.466 142.625C673.132 141.708 671.632 140.333 669.966 138.5L648.216 115.75H647.966V136C647.966 141.333 645.341 144 640.091 144ZM728.262 144.25C721.345 144.25 715.387 142.958 710.387 140.375C705.387 137.792 701.512 134.125 698.762 129.375C696.095 124.625 694.762 119 694.762 112.5C694.762 106.167 696.053 100.625 698.637 95.875C701.303 91.125 704.928 87.4167 709.512 84.75C714.178 82 719.47 80.625 725.387 80.625C729.72 80.625 733.595 81.3333 737.012 82.75C740.512 84.1667 743.47 86.2083 745.887 88.875C748.387 91.5417 750.262 94.7917 751.512 98.625C752.845 102.375 753.512 106.625 753.512 111.375C753.512 112.875 752.97 114.042 751.887 114.875C750.887 115.625 749.428 116 747.512 116H707.387V107H742.512L740.512 108.875C740.512 105.042 739.928 101.833 738.762 99.25C737.678 96.6667 736.053 94.7083 733.887 93.375C731.803 91.9583 729.178 91.25 726.012 91.25C722.512 91.25 719.512 92.0833 717.012 93.75C714.595 95.3333 712.72 97.625 711.387 100.625C710.137 103.542 709.512 107.042 709.512 111.125V112C709.512 118.833 711.095 123.958 714.262 127.375C717.512 130.708 722.262 132.375 728.512 132.375C730.678 132.375 733.095 132.125 735.762 131.625C738.512 131.042 741.095 130.083 743.512 128.75C745.262 127.75 746.803 127.333 748.137 127.5C749.47 127.583 750.512 128.042 751.262 128.875C752.095 129.708 752.595 130.75 752.762 132C752.928 133.167 752.678 134.375 752.012 135.625C751.428 136.875 750.387 137.958 748.887 138.875C745.97 140.708 742.595 142.083 738.762 143C735.012 143.833 731.512 144.25 728.262 144.25ZM793.642 144.25C788.225 144.25 783.683 143.333 780.017 141.5C776.433 139.667 773.767 137 772.017 133.5C770.267 129.917 769.392 125.5 769.392 120.25V93.625H762.892C760.892 93.625 759.35 93.125 758.267 92.125C757.183 91.0417 756.642 89.5833 756.642 87.75C756.642 85.8333 757.183 84.375 758.267 83.375C759.35 82.375 760.892 81.875 762.892 81.875H769.392V70.5C769.392 67.9167 770.058 65.9583 771.392 64.625C772.808 63.2917 774.767 62.625 777.267 62.625C779.767 62.625 781.683 63.2917 783.017 64.625C784.35 65.9583 785.017 67.9167 785.017 70.5V81.875H798.267C800.267 81.875 801.808 82.375 802.892 83.375C803.975 84.375 804.517 85.8333 804.517 87.75C804.517 89.5833 803.975 91.0417 802.892 92.125C801.808 93.125 800.267 93.625 798.267 93.625H785.017V119.375C785.017 123.375 785.892 126.375 787.642 128.375C789.392 130.375 792.225 131.375 796.142 131.375C797.558 131.375 798.808 131.25 799.892 131C800.975 130.75 801.933 130.583 802.767 130.5C803.767 130.417 804.6 130.75 805.267 131.5C805.933 132.167 806.267 133.583 806.267 135.75C806.267 137.417 805.975 138.917 805.392 140.25C804.892 141.5 803.933 142.375 802.517 142.875C801.433 143.208 800.017 143.5 798.267 143.75C796.517 144.083 794.975 144.25 793.642 144.25ZM841.255 144.25C834.838 144.25 829.255 142.958 824.505 140.375C819.755 137.708 816.088 133.958 813.505 129.125C810.922 124.292 809.63 118.625 809.63 112.125C809.63 107.208 810.338 102.833 811.755 99C813.255 95.0833 815.38 91.7917 818.13 89.125C820.88 86.375 824.213 84.2917 828.13 82.875C832.047 81.375 836.422 80.625 841.255 80.625C844.005 80.625 846.963 81 850.13 81.75C853.38 82.5 856.422 83.75 859.255 85.5C860.588 86.3333 861.463 87.3333 861.88 88.5C862.297 89.6667 862.38 90.875 862.13 92.125C861.88 93.2917 861.338 94.3333 860.505 95.25C859.755 96.0833 858.797 96.625 857.63 96.875C856.463 97.0417 855.172 96.75 853.755 96C851.922 94.9167 850.047 94.125 848.13 93.625C846.213 93.0417 844.38 92.75 842.63 92.75C839.88 92.75 837.463 93.2083 835.38 94.125C833.297 94.9583 831.505 96.2083 830.005 97.875C828.588 99.4583 827.505 101.458 826.755 103.875C826.005 106.292 825.63 109.083 825.63 112.25C825.63 118.417 827.088 123.292 830.005 126.875C833.005 130.375 837.213 132.125 842.63 132.125C844.38 132.125 846.172 131.875 848.005 131.375C849.922 130.875 851.838 130.083 853.755 129C855.172 128.25 856.422 128 857.505 128.25C858.672 128.5 859.63 129.083 860.38 130C861.13 130.833 861.588 131.875 861.755 133.125C861.922 134.292 861.755 135.458 861.255 136.625C860.838 137.792 860.005 138.75 858.755 139.5C856.005 141.167 853.088 142.375 850.005 143.125C846.922 143.875 844.005 144.25 841.255 144.25ZM879.715 144C877.215 144 875.298 143.333 873.965 142C872.632 140.583 871.965 138.583 871.965 136V61.75C871.965 59.1667 872.632 57.2083 873.965 55.875C875.298 54.5417 877.215 53.875 879.715 53.875C882.215 53.875 884.132 54.5417 885.465 55.875C886.882 57.2083 887.59 59.1667 887.59 61.75V94.125H885.84C887.673 89.7083 890.507 86.375 894.34 84.125C898.257 81.7917 902.673 80.625 907.59 80.625C912.507 80.625 916.548 81.5417 919.715 83.375C922.882 85.2083 925.257 88 926.84 91.75C928.423 95.4167 929.215 100.083 929.215 105.75V136C929.215 138.583 928.548 140.583 927.215 142C925.882 143.333 923.965 144 921.465 144C918.965 144 917.007 143.333 915.59 142C914.257 140.583 913.59 138.583 913.59 136V106.5C913.59 101.75 912.673 98.2917 910.84 96.125C909.09 93.9583 906.34 92.875 902.59 92.875C898.007 92.875 894.34 94.3333 891.59 97.25C888.923 100.083 887.59 103.875 887.59 108.625V136C887.59 141.333 884.965 144 879.715 144Z" fill="#012970"/>
<defs>
<filter id="filter0_d_0_1" x="24.9065" y="0" width="167.777" height="156.347" filterUnits="userSpaceOnUse" color-interpolation-filters="sRGB">
<feFlood flood-opacity="0" result="BackgroundImageFix"/>
<feColorMatrix in="SourceAlpha" type="matrix" values="0 0 0 0 0 0 0 0 0 0 0 0 0 0 0 0 0 0 127 0" result="hardAlpha"/>
<feOffset dy="4"/>
<feGaussianBlur stdDeviation="2"/>
<feComposite in2="hardAlpha" operator="out"/>
<feColorMatrix type="matrix" values="0 0 0 0 0 0 0 0 0 0 0 0 0 0 0 0 0 0 0.25 0"/>
<feBlend mode="normal" in2="BackgroundImageFix" result="effect1_dropShadow_0_1"/>
<feBlend mode="normal" in="SourceGraphic" in2="effect1_dropShadow_0_1" result="shape"/>
</filter>
<filter id="filter1_d_0_1" x="0" y="16.5799" width="167.777" height="151.111" filterUnits="userSpaceOnUse" color-interpolation-filters="sRGB">
<feFlood flood-opacity="0" result="BackgroundImageFix"/>
<feColorMatrix in="SourceAlpha" type="matrix" values="0 0 0 0 0 0 0 0 0 0 0 0 0 0 0 0 0 0 127 0" result="hardAlpha"/>
<feOffset dy="4"/>
<feGaussianBlur stdDeviation="2"/>
<feComposite in2="hardAlpha" operator="out"/>
<feColorMatrix type="matrix" values="0 0 0 0 0 0 0 0 0 0 0 0 0 0 0 0 0 0 0.25 0"/>
<feBlend mode="normal" in2="BackgroundImageFix" result="effect1_dropShadow_0_1"/>
<feBlend mode="normal" in="SourceGraphic" in2="effect1_dropShadow_0_1" result="shape"/>
</filter>
<filter id="filter2_d_0_1" x="51.2227" y="17.0366" width="167.777" height="151.963" filterUnits="userSpaceOnUse" color-interpolation-filters="sRGB">
<feFlood flood-opacity="0" result="BackgroundImageFix"/>
<feColorMatrix in="SourceAlpha" type="matrix" values="0 0 0 0 0 0 0 0 0 0 0 0 0 0 0 0 0 0 127 0" result="hardAlpha"/>
<feOffset dy="4"/>
<feGaussianBlur stdDeviation="2"/>
<feComposite in2="hardAlpha" operator="out"/>
<feColorMatrix type="matrix" values="0 0 0 0 0 0 0 0 0 0 0 0 0 0 0 0 0 0 0.25 0"/>
<feBlend mode="normal" in2="BackgroundImageFix" result="effect1_dropShadow_0_1"/>
<feBlend mode="normal" in="SourceGraphic" in2="effect1_dropShadow_0_1" result="shape"/>
</filter>
</defs>
</svg>
